<?xml version="1.0" standalone="no"?><!DOCTYPE svg PUBLIC "-//W3C//DTD SVG 1.1//EN" "http://www.w3.org/Graphics/SVG/1.1/DTD/svg11.dtd"><svg t="1611334825459" class="icon" viewBox="0 0 1024 1024" version="1.1" xmlns="http://www.w3.org/2000/svg" p-id="18277" xmlns:xlink="http://www.w3.org/1999/xlink" width="200" height="200"><defs><style type="text/css"></style></defs><path d="M29.752269 912.538164h629.67327c16.441609 0 29.752269-13.327138 29.752269-29.752268v-390.627265c0-16.441609-9.209526-39.39848-20.561281-51.269313l-175.806987-183.92686c-11.351755-11.887312-33.888419-21.514985-50.330029-21.514985h-72.598913c35.194355-73.923388 118.510594-113.822408 215.454707-67.24128 66.571834 31.99749 120.737276 89.796483 170.900458 145.885812l-51.922282 51.922281 199.297355 199.297355 120.385044-120.368566-199.297354-199.297355-44.873524 44.873524c-80.753803-89.343319-179.055348-189.134125-304.396357-178.235534-76.065617 6.614133-123.299712 59.036954-144.128772 123.165823h-84.605696c-16.441609 0-38.961794 9.627673-50.332088 21.514985l-175.806987 183.910381C9.209526 452.762212 0 475.717022 0 492.142153v390.627264c0 16.441609 13.327138 29.768747 29.752269 29.768747z m793.174798-582.774928c9.510262 9.510262 9.510262 24.948731 0 34.458993-9.510262 9.510262-24.948731 9.510262-34.458993 0-5.810797-5.810797-7.635811-13.747344-6.346355-21.263685 3.198925 3.565576 6.428748 7.215605 9.594716 10.715266 14.534202 16.023463 38.14198-7.734683 23.675753-23.675753-1.958904-2.160768-4.002261-4.436886-5.994123-6.64709 4.923008 0.7539 9.728605 2.611872 13.529002 6.412269z m-493.18031 61.164764c6.346354 20.561281 38.677537 11.78844 32.298225-8.90673-1.172047-3.800397-2.177246-7.600794-3.13095-11.384712 9.693587 5.157829 16.392173 15.253084 16.392173 26.990028 0 16.927731-13.763823 30.691554-30.691553 30.691554s-30.691554-13.763823-30.691554-30.691554c0-9.611194 4.52134-18.099777 11.469166-23.725189 1.272979 5.757241 2.646889 11.483585 4.354493 17.026603zM56.878246 475.583133l175.605123-183.710577c2.712804-2.477982 10.849155-5.944686 14.214927-6.195986h74.02226a272.046636 272.046636 0 0 0-1.691125 35.579544C286.982505 332.022875 263.658985 362.009965 263.658985 397.657484c0 44.622223 36.300487 80.92065 80.92065 80.92065s80.92065-36.300487 80.92065-80.92065c0-42.059788-32.382679-76.333396-73.453746-80.16881a200.339632 200.339632 0 0 1 2.39353-31.795626h87.837578c3.699465 0.300736 11.720466 3.734482 14.214927 5.994122l175.706055 183.80945c2.76224 3.180387 6.546158 12.608255 6.748022 16.67643v370.148377H50.231156V492.309c0.199804-4.218544 3.983722-13.660831 6.64709-16.725867z" p-id="18278" fill="#ffffff"></path><path d="M98.134698 835.652733h492.92901a19.07202 19.07202 0 0 0 19.06996-19.06996v-176.02533h-0.434625c0.084453-1.139089 0.352232-2.109272 0.352232-3.332814 0-27.391697-22.20297-49.594667-49.594667-49.594667-7.936547 0-15.321059 2.026878-21.968149 5.341154-4.972444-7.668769-13.561959-12.775102-23.391496-12.775102-1.423347 0-2.778719 0.218343-4.152629 0.418147-10.179709-9.40933-23.675753-15.30458-38.628101-15.30458-26.924114 0-49.343367 18.719788-55.337489 43.800349a38.230553 38.230553 0 0 0-21.531464-6.597654c-12.624734 0-23.741668 6.177448-30.74099 15.588837-10.884172-9.343415-29.921175-15.588837-51.720417-15.588837-23.356478 0-43.433698 7.199126-53.796732 17.68163-4.469844-2.494461-9.543219-4.035218-15.018263-4.035218-5.073376 0-9.810998 1.338893-14.031602 3.499661-1.925946-13.862695-13.712327-24.580021-28.129118-24.580021-11.485645 0-21.33166 6.830416-25.852999 16.610516-5.357633-1.775578-10.983045-2.980582-16.927731-2.980582-17.597177 0-33.085083 8.556558-42.931098 21.599438-3.699465-5.425608-9.627673-9.209526-16.676431-9.209526-10.966566 0-19.722928 8.638951-20.326459 19.455149h-0.2513v176.006791a19.084379 19.084379 0 0 0 19.090558 19.092619z" p-id="18279" fill="#ffffff"></path></svg>