<?xml version="1.0" standalone="no"?><!DOCTYPE svg PUBLIC "-//W3C//DTD SVG 1.1//EN" "http://www.w3.org/Graphics/SVG/1.1/DTD/svg11.dtd"><svg t="1611334123025" class="icon" viewBox="0 0 1024 1024" version="1.1" xmlns="http://www.w3.org/2000/svg" p-id="8001" xmlns:xlink="http://www.w3.org/1999/xlink" width="200" height="200"><defs><style type="text/css"></style></defs><path d="M643.6 641.3s53.5-8.6 93.2 10.4c36.7 17.5 95.6 116.9 127.7 135.5 35.8 20.8 69 6 69 6s23.7 7.9 26.4 21.7c2.4 12-16.1 30.1-16.1 30.1s-55.5 4-108.8-33.5c-43.4-30.5-82-101.4-116.4-120.3-24.4-13.4-50.9 1.9-50.9 1.9l-24.1-51.8z" fill="#ffffff" p-id="8002"></path><path d="M388.3 179C172.1 179 64 287.1 64 503.3s108.1 324.3 324.3 324.3c216.2 0 324.3-108.1 324.3-324.3S604.5 179 388.3 179z m4.4 41.7c64.9 0 97.3 32.4 97.3 97.3s-32.4 97.3-97.3 97.3-97.3-32.4-97.3-97.3c0.1-64.9 32.5-97.3 97.3-97.3z m36.4 276.1c0 24.6-12.3 36.9-36.9 36.9-24.6 0-36.9-12.3-36.9-36.9 0-24.6 12.3-36.9 36.9-36.9 24.6 0 36.9 12.3 36.9 36.9z m-219.7 99.6c-64.9 0-97.3-32.4-97.3-97.2 0-64.9 32.4-97.3 97.3-97.3s97.3 32.4 97.3 97.3c0 64.7-32.4 97.2-97.3 97.2z m181.1 174.5c-64.9 0-97.3-32.4-97.3-97.3s32.4-97.3 97.3-97.3 97.3 32.4 97.3 97.3-32.4 97.3-97.3 97.3zM562 586.8c-64.9 0-97.3-32.4-97.3-97.3 0-64.8 32.4-97.3 97.3-97.3s97.3 32.4 97.3 97.3-32.4 97.3-97.3 97.3z" fill="#ffffff" p-id="8003"></path></svg>